<?xml version="1.0" encoding="utf-8"?>
<!-- Generator: Adobe Illustrator 21.0.0, SVG Export Plug-In . SVG Version: 6.00 Build 0)  -->
<svg version="1.1" id="Layer_1" xmlns="http://www.w3.org/2000/svg" xmlns:xlink="http://www.w3.org/1999/xlink" x="0px" y="0px"
	 width="3000px" height="2000px" viewBox="0 0 3000 2000" style="enable-background:new 0 0 3000 2000;" xml:space="preserve">
<style type="text/css">
	.st0{fill-rule:evenodd;clip-rule:evenodd;fill:#E1F6FB;}
	.st1{fill-rule:evenodd;clip-rule:evenodd;fill:#F2FCFF;}
	.st2{fill-rule:evenodd;clip-rule:evenodd;fill:#CCE9F0;}
	.st3{fill-rule:evenodd;clip-rule:evenodd;fill:#FFFFFF;}
	.st4{fill-rule:evenodd;clip-rule:evenodd;fill:#F2F29E;}
	.st5{fill-rule:evenodd;clip-rule:evenodd;fill:#E6E6E6;}
	.st6{fill-rule:evenodd;clip-rule:evenodd;fill:#DD4646;}
	.st7{fill-rule:evenodd;clip-rule:evenodd;fill:#B3B3B3;}
	.st8{fill-rule:evenodd;clip-rule:evenodd;fill:#999999;}
	.st9{fill-rule:evenodd;clip-rule:evenodd;fill:#CCCCCC;}
	.st10{fill-rule:evenodd;clip-rule:evenodd;fill:#B3843E;}
	.st11{fill-rule:evenodd;clip-rule:evenodd;fill:#9DC234;}
	.st12{fill-rule:evenodd;clip-rule:evenodd;fill:#B6D957;}
	.st13{fill-rule:evenodd;clip-rule:evenodd;fill:#889126;}
	.st14{fill-rule:evenodd;clip-rule:evenodd;fill:#88AB28;}
	.st15{fill-rule:evenodd;clip-rule:evenodd;fill:#B7E366;}
	.st16{fill-rule:evenodd;clip-rule:evenodd;fill:#ADD95B;}
	.st17{fill-rule:evenodd;clip-rule:evenodd;fill:#A2D04A;}
	.st18{fill-rule:evenodd;clip-rule:evenodd;fill:#808080;}
	.st19{fill-rule:evenodd;clip-rule:evenodd;fill:#666666;}
	.st20{fill-rule:evenodd;clip-rule:evenodd;fill:#EBB481;}
	.st21{fill-rule:evenodd;clip-rule:evenodd;fill:#D99153;}
	.st22{fill-rule:evenodd;clip-rule:evenodd;fill:#966C2D;}
	.st23{fill-rule:evenodd;clip-rule:evenodd;fill:#C2AF53;}
	.st24{fill-rule:evenodd;clip-rule:evenodd;fill:#A39341;}
	.st25{fill-rule:evenodd;clip-rule:evenodd;fill:#FBDF57;}
	.st26{fill-rule:evenodd;clip-rule:evenodd;fill:#D1BE60;}
	.st27{fill-rule:evenodd;clip-rule:evenodd;fill:#78C3E3;}
	.st28{fill-rule:evenodd;clip-rule:evenodd;fill:#9CE1FF;}
	.st29{fill-rule:evenodd;clip-rule:evenodd;fill:#87D7F8;}
	.st30{fill-rule:evenodd;clip-rule:evenodd;fill:#72ABC4;}
	.st31{fill-rule:evenodd;clip-rule:evenodd;fill:#5F9AB3;}
	.st32{fill-rule:evenodd;clip-rule:evenodd;fill:#6DB7D6;}
	.st33{fill-rule:evenodd;clip-rule:evenodd;fill:#B2E8FF;}
</style>
<g>
	<rect class="st0" width="3000" height="2000"/>
	<path class="st1" d="M1019.2,682.7h-341c-43.3,0-78.7,35.4-78.7,78.7c0,43.3,35.4,78.7,78.7,78.7h341c43.3,0,78.7-35.4,78.7-78.7
		C1097.9,718.1,1062.5,682.7,1019.2,682.7z"/>
	<path class="st2" d="M2459.6,690.2h-520c-66,0-120,54-120,120s54,120,120,120h520c66,0,120-54,120-120S2525.6,690.2,2459.6,690.2z"
		/>
	<path class="st2" d="M920,1060H400c-66,0-120,54-120,120s54,120,120,120h520c66,0,120-54,120-120S986,1060,920,1060z"/>
	<path class="st3" d="M1542.7,507c-523.9,0-962.7,364.1-1077.3,853H2620C2505.4,871.1,2066.6,507,1542.7,507z"/>
	<path class="st1" d="M1400,620c-454.5,0-835.2,315.8-934.6,740h1869.3C2235.2,935.8,1854.5,620,1400,620z"/>
	<path class="st0" d="M1500,820c-331.7,0-609.5,230.5-682,540H2182C2109.5,1050.5,1831.7,820,1500,820z"/>
	<path class="st3" d="M894.9,1029.5c-30.6,0-66,9.3-99.2,24.4l-13.3,1.1c-8.3-10.3-24.3-16.4-47.2-16.4c-30.7,0-67,11.1-99.2,28.4
		l-17.9,1.5c-4.4-3.2-11.1-5.1-19.9-5.1c-12.6,0-27.1,3.8-40.7,10l-5.5,0.4c-3.4-4.2-10-6.7-19.4-6.7c-12.6,0-27.5,4.5-40.7,11.7
		l-100.4,8.2l87.5,0l15.3,0l110.3,0l135.1,0H787l136.9,0l32.5,0C966.5,1053.3,943.9,1029.5,894.9,1029.5z"/>
	<path class="st3" d="M2110.8,749.5c-14.4,0-24.5,3.9-29.8,10.4l-8.4-0.7c-20.9-9.6-43.3-15.4-62.6-15.4c-13.5,0-23.8,2.8-30.6,7.8
		l-27.5-2.2c-49.4-26.6-105.3-43.6-152.4-43.6c-35.1,0-59.7,9.4-72.5,25.2l-20.5-1.7c-51-23.3-105.4-37.6-152.4-37.6
		c-75.3,0-110.1,36.5-94.6,88.3l50,0l210.4,0h72.6l207.5,0l169.5,0l23.5,0l134.5,0l-154.3-12.6
		C2153.1,756.5,2130.2,749.5,2110.8,749.5z"/>
	<ellipse class="st2" cx="1500" cy="1560" rx="1170" ry="80"/>
	<path class="st4" d="M1339.8,993.8c-203.8,0-377.9,127-447.5,306.2h895.1C1717.7,1120.8,1543.6,993.8,1339.8,993.8z"/>
	<g>
		<g>
			<path class="st5" d="M1390.1,880h-94.8h-37.9c0,120-21.9,226.5-78.7,360h116.6h94.8h116.6c-56.7-133.5-78.7-240-78.7-360H1390.1z
				"/>
			<path class="st3" d="M1257.4,880c0,120-21.9,226.5-78.7,360h69.3c56.7-133.5,78.7-240,78.7-360h-31.4H1257.4z"/>
			<path class="st6" d="M1255.5,940c-1.3,20.1-3.4,40.1-6.3,60h187c-2.9-19.9-4.9-39.9-6.3-60H1255.5z"/>
			<path class="st6" d="M1246.1,1020c-3.4,19.9-7.5,39.8-12.5,60h218.4c-5-20.2-9.2-40.1-12.5-60H1246.1z"/>
			<rect x="1238.2" y="860" class="st7" width="209" height="36.3"/>
			<rect x="1238.2" y="860" class="st5" width="117.8" height="36.3"/>
		</g>
		<g>
			<path class="st5" d="M1610.4,880h-94.8h-37.9c0,120-21.9,226.5-78.7,360h116.6h94.8H1727c-56.7-133.5-78.7-240-78.7-360H1610.4z"
				/>
			<path class="st3" d="M1477.7,880c0,120-21.9,226.5-78.7,360h69.3c56.7-133.5,78.7-240,78.7-360h-31.4H1477.7z"/>
			<path class="st6" d="M1475.7,940c-1.3,20.1-3.4,40.1-6.3,60h187c-2.8-19.9-4.9-39.9-6.3-60H1475.7z"/>
			<path class="st6" d="M1466.4,1020c-3.4,19.9-7.5,39.8-12.5,60h218.4c-5-20.2-9.2-40.1-12.5-60H1466.4z"/>
			<rect x="1458.5" y="860" class="st7" width="209" height="36.3"/>
			<rect x="1458.5" y="860" class="st5" width="117.8" height="36.3"/>
		</g>
	</g>
	<g>
		<polygon class="st7" points="906.9,922.1 889.7,1280 940.5,1280 923.2,922.1 		"/>
		<polygon class="st3" points="889.7,1280 908.4,1280 913.6,922.1 906.9,922.1 		"/>
		<path class="st3" d="M914.7,906.3c-19.6,0-30.7,7.8-30.7,17.3s11.1,17.3,30.7,17.3s40.4-7.8,40.4-17.3S934.3,906.3,914.7,906.3z"
			/>
		<polygon class="st7" points="912.8,780 901.2,925.3 929,925.3 917.3,780 		"/>
		<polygon class="st7" points="906.1,935.1 1037.8,997.7 1040,993.8 920,911 		"/>
		<polygon class="st7" points="789,993.1 791.3,997 922.9,934.5 909,910.4 		"/>
		<path class="st5" d="M919.1,906.4c-2.8,4.9-4.4,10.8-4.4,17.2c0,6.4,1.6,12.3,4.4,17.2c18.2-1,36-8.4,36-17.2
			S937.3,907.4,919.1,906.4z"/>
		<polygon class="st6" points="893,1123.5 885.4,1280 944.7,1280 937.2,1123.5 		"/>
	</g>
	<g>
		<polygon class="st7" points="566.2,836.2 544.8,1280 607.8,1280 586.4,836.2 		"/>
		<polygon class="st3" points="544.8,1280 568,1280 574.5,836.2 566.2,836.2 		"/>
		<path class="st3" d="M575.8,816.6c-24.3,0-38.1,9.6-38.1,21.5c0,11.9,13.7,21.5,38.1,21.5s50.1-9.6,50.1-21.5
			C625.9,826.2,600.2,816.6,575.8,816.6z"/>
		<polygon class="st7" points="573.5,660 559.1,840.2 593.6,840.2 579.1,660 		"/>
		<polygon class="st7" points="565.2,852.4 728.4,929.9 731.2,925.1 582.4,822.5 		"/>
		<polygon class="st7" points="420,924.3 422.8,929.1 586,851.5 568.8,821.7 		"/>
		<path class="st5" d="M581.3,816.7c-3.4,6.1-5.5,13.4-5.5,21.4c0,7.9,2,15.3,5.5,21.3c22.6-1.3,44.6-10.4,44.6-21.3
			C625.9,827.1,603.9,818,581.3,816.7z"/>
		<polygon class="st6" points="548.9,1085.9 539.6,1280 613.1,1280 603.7,1085.9 		"/>
	</g>
	<g>
		<rect x="1756.6" y="910.7" class="st7" width="156.4" height="329.3"/>
		<path class="st8" d="M1834.8,889.9c-42.9,0-77.7,9.3-78.2,20.8H1913C1912.5,899.2,1877.7,889.9,1834.8,889.9z"/>
		<rect x="1791.3" y="910.7" class="st8" width="49.9" height="329.3"/>
		<rect x="1660.4" y="910.7" class="st5" width="156.4" height="329.3"/>
		<rect x="1660.4" y="910.7" class="st3" width="62.6" height="329.3"/>
		<path class="st7" d="M1738.5,889.9c-42.9,0-77.7,9.3-78.2,20.8h156.3C1816.3,899.2,1781.5,889.9,1738.5,889.9z"/>
		<rect x="1651.7" y="1059.2" class="st7" width="173.6" height="9.7"/>
		<g>
			<rect x="1651.7" y="1012.5" class="st9" width="30.2" height="9.7"/>
			<rect x="1651.7" y="983.5" class="st9" width="30.2" height="9.7"/>
			<rect x="1651.7" y="954.5" class="st9" width="30.2" height="9.7"/>
			<rect x="1651.7" y="925.5" class="st9" width="30.2" height="9.7"/>
		</g>
	</g>
	<g>
		<rect x="2236.2" y="998.2" class="st7" width="383.8" height="241.8"/>
		<rect x="1776.9" y="998.2" class="st9" width="459.3" height="241.8"/>
		<rect x="1938.6" y="1095.4" class="st3" width="33.3" height="44.4"/>
		<rect x="1938.6" y="1034.1" class="st3" width="33.3" height="44.4"/>
		<rect x="1887.3" y="1034.1" class="st3" width="33.3" height="44.4"/>
		<rect x="1887.3" y="1095.4" class="st3" width="33.3" height="44.4"/>
		<rect x="1836" y="1095.4" class="st3" width="33.3" height="44.4"/>
		<rect x="1836" y="1034.1" class="st3" width="33.3" height="44.4"/>
		<rect x="1989.9" y="1095.4" class="st3" width="33.3" height="44.4"/>
		<rect x="2092.5" y="1034.1" class="st3" width="33.3" height="44.4"/>
		<rect x="2143.8" y="1095.4" class="st3" width="33.3" height="44.4"/>
		<rect x="2143.8" y="1034.1" class="st3" width="33.3" height="44.4"/>
		<rect x="2041.2" y="1034.1" class="st3" width="33.3" height="44.4"/>
		<rect x="2092.5" y="1095.4" class="st3" width="33.3" height="44.4"/>
		<rect x="2041.2" y="1095.4" class="st3" width="33.3" height="44.4"/>
		<rect x="1989.9" y="1034.1" class="st3" width="33.3" height="44.4"/>
	</g>
	<path class="st10" d="M380,1388.3c0,81.6,66.8,148.3,148.3,148.3h1943.3c81.6,0,148.3-66.8,148.3-148.3V1240H380V1388.3z"/>
	<rect x="618.5" y="1240" class="st11" width="2001.5" height="174.1"/>
	<rect x="618.5" y="1240" class="st12" width="1330.7" height="63.5"/>
	<g>
		<path class="st13" d="M2497.2,1212.6c-1.6,0-3.2,0.1-4.7,0.3c-11.8-42-50.5-72.8-96.3-72.8c-36.6,0-68.6,19.7-86.1,49.1l-0.5,0
			c-31.5,0-57.9,21.7-65.1,50.9h293.1C2531.3,1223.9,2515.6,1212.6,2497.2,1212.6z"/>
		<path class="st11" d="M2372.3,1223.5c-1,0-1.9,0.1-2.8,0.2c-7.1-25.3-30.4-43.9-58-43.9c-22.1,0-41.4,11.9-51.9,29.6l-0.3,0
			c-19,0-34.9,13.1-39.3,30.7h176.7C2392.9,1230.3,2383.4,1223.5,2372.3,1223.5z"/>
	</g>
	<path class="st14" d="M2497.5,1213.4c-0.4,0.5-0.9,1-1.3,1.5c-1-4.6-2.2-9.1-3.3-13.6c5.4-1.3,11.2-5.8,15.3-12.6
		c6.3-10.4,6.2-22-0.2-25.9c-6.5-4-16.8,1.2-23.2,11.5c-1.3-3.7-2.6-7.4-3.9-11c4.9-2.3,9.7-7.9,12.4-15.2
		c4.2-11.4,1.8-22.7-5.3-25.4c-6.5-2.4-14.6,3.3-19.2,12.9c-1.2-2.4-2.5-4.8-3.8-7.1c4.2-2.7,8.1-7.8,10.5-14.1
		c4.2-11.4,1.8-22.7-5.3-25.4c-7.1-2.6-16.3,4.5-20.5,15.9l-0.1,0.4c-4.4-5.4-8.9-10.1-13.5-13.9c0.2-5.7-3.4-12.9-9.8-18.5
		c-9.1-8-20.6-9.8-25.6-4.1c-5,5.7-1.6,16.8,7.5,24.8c7.6,6.7,16.8,9.1,22.6,6.4c2.9,2.5,5.7,5.3,8.5,8.5
		c-9.8-1.8-18.6,1.1-20.6,7.4c-2.4,7.2,5.1,16.1,16.6,19.9c8.5,2.8,16.8,2,21.6-1.5c1.8,3.3,3.6,6.8,5.3,10.4
		c-2.3-0.9-4.9-1.6-7.6-2c-12-1.7-22.6,3.1-23.6,10.6c-1,7.5,7.9,15,19.9,16.6c8.4,1.2,16-0.8,20.3-4.6c1.8,4.8,3.6,9.7,5.3,14.8
		c-1.8-0.6-3.7-1-5.6-1.3c-12-1.7-22.6,3.1-23.6,10.6c-1,7.5,7.9,15,19.9,16.6c6.2,0.9,12.1,0,16.4-2.1c1.1,4.2,2.1,8.4,3.1,12.7
		c-1.2-0.5-2.4-1-3.6-1.4c-11.5-3.8-22.8-0.9-25.1,6.3c-2.3,7.2,5.1,16.1,16.7,19.9c6.3,2,12.5,2.1,17.2,0.7
		c0.9,5.2,1.7,10.4,2.4,15.7c-0.9-0.4-1.8-0.7-2.8-1c-11.5-3.8-22.8-0.9-25.1,6.3c-0.4,1.1-0.5,2.3-0.4,3.5h49.7v-18.9
		c-3.3,1.6-6.6,4.2-9.4,7.4c-0.7,0.8-1.4,1.6-2,2.4c-0.7-5.4-1.5-10.8-2.4-16.1c4.4-0.4,9.4-2.8,13.8-6.8v-30.7
		C2509.6,1203.8,2502.9,1207.3,2497.5,1213.4z"/>
	<g>
		<path class="st15" d="M2580.4,1136.2c-2.9-2.9,5.8-19.5,20-38.7c-2.9-4.5-5.7-9-8.5-13.5l-16,17l8.5-29.5
			c-28.3-48.3-49.3-96.8-62.3-141c-6.5,15.8-9.2,35.9-8.5,59.1l0,0l0,0c0.1,3.1,0.3,6.2,0.5,9.3c0,6.9-0.8,16.3-4.4,23.7
			c-13.1,26.7,12,31.5,21.5,61.7c4.1,13-11.1,13.8-4.4,33.5c6.7,19.7,30,17.1,29.9,33.5c0,7.5-3.9,69.3,40.6,91.5h22.8v-116.4
			c-3.4-4.7-6.7-9.5-10.1-14.4C2595.6,1128.5,2583.2,1138.9,2580.4,1136.2z"/>
		<g>
			<path class="st16" d="M2521.1,1176.5c-3.7-1.9-0.5-20.3,7.1-43c-4.1-3.4-8.2-6.8-12.3-10.3l-10,21.1l-0.9-30.6
				c-41.8-37.3-76.6-77-102.5-115.1c-1.3,17.1,2.2,37,10,58.8l0,0l0,0c1,2.9,2.1,5.8,3.3,8.7c2.1,6.6,4.2,15.8,3,23.9
				c-4.3,29.4,21.1,26.3,39.4,52.1c7.9,11.2-6.3,16.5,6.1,33.2c12.4,16.7,33.8,7.1,38.7,22.7c1.3,4.1,6.9,25.6,20.6,44.6h96.3v-46.1
				c-25.6-14.2-52-31.8-78.3-52.2C2533.2,1164.5,2524.6,1178.3,2521.1,1176.5z"/>
			<path class="st17" d="M2453.2,1135.9l7.2-21.5c0,0-7.1,6.9-14.7,14.4C2448.2,1130.8,2450.7,1133.2,2453.2,1135.9z"/>
			<path class="st17" d="M2521.1,1239l20.8-38.4l-31.1,19.4C2513.5,1226,2516.9,1232.6,2521.1,1239z"/>
			<path class="st17" d="M2464.3,1175.4c2.7,3.7,5.9,6.1,9.3,7.8l20.3-30.5l-31.6,19.8C2462.8,1173.3,2463.5,1174.3,2464.3,1175.4z"
				/>
			<path class="st17" d="M2508,1140.1c4.7,4.6,9.5,9.1,14.4,13.4c1.4-6,3.4-12.7,5.8-19.9c-4.1-3.4-8.2-6.8-12.3-10.3L2508,1140.1z"
				/>
			<path class="st17" d="M2402.5,998.6c35.5,60.9,67.6,104.2,103.2,139.3l-0.7-24.2C2463.2,1076.4,2428.4,1036.7,2402.5,998.6z"/>
			<path class="st17" d="M2533,1162.7c25.7,21.5,54,40.4,87,59.5v-25.6c-25.6-14.2-52-31.8-78.3-52.2
				C2538.8,1151.3,2535.8,1157.6,2533,1162.7z"/>
		</g>
		<path class="st11" d="M2602.6,1191.3c-0.3,0.4-0.6,0.9-0.9,1.3c-1.3-3.6-2.7-7-4-10.5c4.1-1.5,8.3-5.8,10.9-11.6
			c4-8.9,2.7-18.1-2.9-20.6c-5.5-2.5-13.2,2.7-17.2,11.5c-1.4-2.8-2.8-5.6-4.3-8.3c3.7-2.4,6.9-7.3,8.3-13.4
			c2.2-9.5-0.9-18.3-6.8-19.6c-5.4-1.2-11.3,4.1-14,12.2c-1.2-1.8-2.5-3.6-3.7-5.3c3.1-2.6,5.7-7,6.9-12.3
			c2.2-9.5-0.9-18.3-6.8-19.6c-5.9-1.4-12.5,5.2-14.6,14.7l-0.1,0.3c-4-3.9-8.1-7.1-12.2-9.7c-0.4-4.6-4-9.9-9.7-13.7
			c-8.1-5.4-17.4-5.7-20.8-0.7c-3.4,5,0.4,13.5,8.5,18.9c6.7,4.5,14.3,5.5,18.6,2.8c2.6,1.7,5.1,3.6,7.7,5.9c-8-0.4-14.6,2.8-15.6,8
			c-1.1,6,5.7,12.3,15.2,14.1c7,1.3,13.6-0.1,17-3.4c1.8,2.5,3.6,5,5.3,7.7c-1.9-0.5-4.1-0.8-6.3-0.8c-9.7-0.1-17.7,4.8-17.7,10.9
			c-0.1,6.1,7.8,11.1,17.5,11.2c6.8,0.1,12.6-2.3,15.6-5.7c1.9,3.6,3.8,7.3,5.7,11.2c-1.5-0.3-3-0.4-4.6-0.4
			c-9.7-0.1-17.7,4.8-17.7,10.9c-0.1,6.1,7.8,11.1,17.5,11.2c5.1,0,9.6-1.2,12.8-3.4c1.3,3.2,2.6,6.5,3.8,9.8c-1-0.3-2-0.5-3-0.7
			c-9.6-1.8-18.2,1.6-19.3,7.6c-1.1,6,5.7,12.3,15.3,14.1c5.2,1,10.1,0.4,13.7-1.2c1.2,4,2.4,8.1,3.5,12.2c-0.7-0.2-1.5-0.4-2.3-0.5
			c-9.6-1.8-18.2,1.6-19.3,7.6c-0.6,3.1,0.9,6.2,3.8,8.8h33.5v-25.9c-2.4,1.6-4.6,3.9-6.5,6.7c-0.5,0.7-0.9,1.4-1.3,2.2
			c-1.1-4.2-2.3-8.4-3.6-12.5c3.9-0.9,8.1-3.8,11.4-8.2v-22.7C2614.9,1180.3,2607.5,1184.1,2602.6,1191.3z"/>
	</g>
	<g>
		<polygon class="st18" points="898.6,1182.1 867.6,1145.5 783,1140.7 729.9,1144.7 701.9,1120 658.3,1123.1 631.3,1162.5 
			630,1157.8 618.8,1134.7 602.1,1128.8 564.7,1143.9 487.5,1240 578.1,1240 653.1,1240 993.7,1240 972.7,1194 		"/>
		<polygon class="st8" points="782.5,1148 734,1151.1 800.5,1159.6 849.4,1173.8 860.1,1204.5 903,1197.9 861.3,1154.7 		"/>
		<polygon class="st8" points="728.2,1178.9 717.5,1144.3 702.8,1131.2 696.4,1140.7 694.4,1186.9 681.3,1215.5 693.2,1215.1 
			710.7,1196.8 713.1,1184.1 723.9,1194.1 735.8,1226.7 767.6,1228.3 752.9,1198.4 		"/>
		<polygon class="st19" points="595.8,1152.4 583.8,1182.9 586.9,1193.3 585.4,1212 561.9,1223.1 542.4,1228.7 532.8,1240 
			592.9,1240 598.9,1221.9 631.3,1162.5 618.8,1134.7 		"/>
		<polygon class="st19" points="797.7,1190.7 787,1176.6 736.3,1163.9 787,1202 787,1240 851.4,1240 832.3,1195.3 		"/>
	</g>
	<g>
		<g>
			<path class="st20" d="M2297.8,1075.8c-11.2-0.1-20.3,8.9-20.4,20.1l-0.9,156.6c-0.1,11.2,8.9,20.3,20.1,20.4
				c11.2,0.1,20.3-8.9,20.4-20.1l0.9-156.6C2318,1085,2309,1075.9,2297.8,1075.8z"/>
			<path class="st21" d="M2311.5,1081.3c-10.2,0.9-18.3,9.5-18.4,20l-0.9,156.6c0,5.9,2.4,11.2,6.4,14.9c10.2-0.9,18.3-9.5,18.4-20
				l0.9-156.6C2318,1090.3,2315.5,1085,2311.5,1081.3z"/>
		</g>
		<path class="st16" d="M2371.2,1011.8c3.9-28.6-11.2-55.7-36.3-70.4c2.6-4.4,4.4-9.4,5.1-14.7c3.2-23-14.6-44.5-39.7-47.9
			c-25.1-3.4-47.9,12.4-51.1,35.5c-1.2,8.9,0.7,17.7,5,25.2c-19.5,10.5-33.7,28.9-36.7,51.3c-1.9,13.5,0.6,26.7,6.3,38.4
			c-11.4,12.1-19.1,27.3-21.5,44.4c-6.4,46.9,29.8,90.6,80.9,97.6c51.1,7,97.7-25.4,104.2-72.3c3.4-25.1-5.4-49.4-22.1-67.5
			C2368.3,1025.3,2370.3,1018.7,2371.2,1011.8z"/>
		<path class="st17" d="M2371.2,1011.8c3.9-28.6-11.2-55.7-36.3-70.4c2.6-4.4,4.4-9.4,5.1-14.7c3-21.9-13-42.4-36.2-47.3
			c47.9,25.8,11,50.2-0.7,56.4c-6.8,3.6,17.9,16.1,1.2,24.1c-14.1,6.7,12.9,22,5.7,22.3c-22,1-21.6,21.7-9.2,27.3
			c10.5,4.7-5.5,0.6-9.5,29.7c-7.9,4.3-19.4,6.5-11.5,20.7c10.7,19.5,24.8,43.6-9.5,43c-17.6-0.3-25.7-3.6-28.6,17.8
			c-1.1,8.2-10,4.1-19.9,6.4c-2.5,0.6-4.7,1.2-6.8,1.8c14.3,22,38.7,38.2,68.1,42.2c51.1,7,97.7-25.4,104.2-72.3
			c3.4-25.1-5.4-49.4-22.1-67.5C2368.3,1025.3,2370.3,1018.7,2371.2,1011.8z"/>
		<path class="st15" d="M2257.1,1023.9c-11.3-1.5-26.6,13.1-34.2,32.7c-7.6,19.6-4.5,36.8,6.8,38.3c11.3,1.5,26.6-13.1,34.2-32.7
			C2271.5,1042.6,2268.4,1025.4,2257.1,1023.9z"/>
		<path class="st15" d="M2284,885.4c-10.8,1.4-21,8.5-22.8,15.9c-1.7,7.4,5.6,12.2,16.5,10.8c10.8-1.4,21-8.5,22.8-15.9
			C2302.2,888.8,2294.8,884,2284,885.4z"/>
		<path class="st16" d="M2239.2,934.3c-3.3,1-4.9,7.4-3.7,14.3c0.2,1.3,0.6,2.6,1,3.8c-1.2-0.2-2.6-0.4-4-0.5
			c-7.3-0.3-13.6,2.1-14.2,5.4c-0.6,3.3,4.9,6.2,12.1,6.5c6.8,0.3,12.7-1.8,14-4.8c2.9-1.6,4.2-7.6,3-14
			C2246.2,938.2,2242.5,933.4,2239.2,934.3z"/>
		<path class="st17" d="M2343.2,909.3c-1-0.2-1.9-0.4-2.8-0.5c0.5-0.7,1-1.5,1.4-2.4c2.2-4.5,2.3-9.2,0.2-10.5
			c-2.1-1.3-5.5,1.3-7.7,5.8c-2,4.2-2.3,8.5-0.6,10.1c0.3,2.2,4,4.8,8.6,5.9c5,1.2,9.3,0.2,9.5-2.1
			C2352.1,913.4,2348.2,910.5,2343.2,909.3z"/>
		<path class="st17" d="M2387.8,1059.9c-1.4-0.3-2.7-0.5-4-0.6c0.7-1,1.4-2.1,2-3.3c3.1-6.3,3.2-12.9,0.3-14.7
			c-2.9-1.8-7.8,1.8-10.9,8.1c-2.9,5.9-3.2,12-0.9,14.3c0.4,3.2,5.6,6.8,12.2,8.3c7.1,1.7,13.1,0.3,13.4-3
			C2400.3,1065.7,2394.9,1061.6,2387.8,1059.9z"/>
	</g>
	<g>
		<g>
			<path class="st20" d="M2511.4,949.1c-22-0.1-40,17.6-40.1,39.6l-1.8,308.4c-0.1,22,17.6,40,39.6,40.1c22,0.1,40-17.6,40.1-39.6
				l1.8-308.4C2551.1,967.2,2533.4,949.2,2511.4,949.1z"/>
			<path class="st21" d="M2538.3,959.8c-20.2,1.8-36,18.7-36.2,39.4l-1.8,308.4c-0.1,11.6,4.8,22.1,12.7,29.4
				c20.2-1.8,36-18.7,36.2-39.4l1.8-308.4C2551.1,977.6,2546.2,967.1,2538.3,959.8z"/>
		</g>
		<path class="st16" d="M2656,822.9c7.7-56.2-22.1-109.7-71.4-138.7c5.2-8.7,8.7-18.4,10.1-28.9c6.2-45.3-28.8-87.6-78.2-94.3
			c-49.4-6.8-94.4,24.5-100.6,69.8c-2.4,17.6,1.4,34.8,9.9,49.6c-38.5,20.7-66.3,56.9-72.3,101.1c-3.6,26.6,1.1,52.6,12.3,75.6
			c-22.4,23.7-37.6,53.7-42.3,87.5c-12.7,92.4,58.7,178.5,159.3,192.3c100.6,13.8,192.5-50,205.2-142.4c6.8-49.5-10.6-97.2-43.6-133
			C2650.1,849.6,2654.1,836.6,2656,822.9z"/>
		<path class="st17" d="M2656,822.9c7.7-56.2-22.1-109.7-71.4-138.7c5.2-8.7,8.7-18.4,10.1-28.9c5.9-43.2-25.6-83.6-71.3-93.2
			c94.4,50.8,21.7,98.9-1.5,111.1c-13.5,7.1,35.3,31.7,2.3,47.4c-27.7,13.2,25.4,43.4,11.3,44c-43.3,1.9-42.6,42.8-18.2,53.8
			c20.7,9.3-10.8,1.2-18.7,58.5c-15.5,8.5-38.2,12.7-22.7,40.8c21.1,38.4,48.9,86-18.6,84.8c-34.6-0.6-50.5-7-56.3,35.1
			c-2.2,16.1-19.6,8.1-39.1,12.6c-4.9,1.1-9.3,2.3-13.4,3.6c28.1,43.3,76.3,75.2,134.2,83.1c100.6,13.8,192.5-50,205.2-142.4
			c6.8-49.5-10.6-97.2-43.6-133C2650.1,849.6,2654.1,836.6,2656,822.9z"/>
		<path class="st15" d="M2431.2,846.7c-22.3-3.1-52.4,25.8-67.3,64.5c-14.9,38.7-8.9,72.5,13.4,75.5c22.3,3.1,52.4-25.8,67.3-64.5
			S2453.5,849.8,2431.2,846.7z"/>
		<path class="st15" d="M2484.1,573.9c-21.3,2.8-41.4,16.8-44.8,31.3c-3.4,14.5,11.1,24,32.4,21.3c21.3-2.8,41.4-16.8,44.8-31.3
			C2520,580.7,2505.5,571.1,2484.1,573.9z"/>
		<path class="st16" d="M2395.8,670.3c-6.5,1.9-9.7,14.5-7.2,28.1c0.5,2.6,1.2,5.1,2,7.4c-2.4-0.5-5.1-0.8-7.9-0.9
			c-14.3-0.6-26.8,4.2-27.9,10.7c-1.1,6.5,9.6,12.2,23.9,12.8c13.3,0.5,25.1-3.6,27.5-9.4c5.6-3.1,8.3-14.9,5.9-27.5
			C2409.6,677.9,2402.3,668.4,2395.8,670.3z"/>
		<path class="st17" d="M2600.7,621c-1.9-0.5-3.8-0.7-5.6-0.9c1-1.4,1.9-3,2.8-4.7c4.3-8.8,4.5-18,0.4-20.6
			c-4.1-2.6-10.9,2.5-15.2,11.3c-4,8.2-4.5,16.8-1.2,20c0.6,4.4,7.8,9.5,17,11.7c9.9,2.3,18.3,0.5,18.8-4.2
			C2618.2,629,2610.6,623.4,2600.7,621z"/>
		<path class="st17" d="M2688.6,917.8c-2.7-0.6-5.3-1.1-7.8-1.3c1.4-2,2.7-4.2,3.9-6.6c6.1-12.4,6.4-25.4,0.6-29
			c-5.7-3.6-15.3,3.5-21.4,16c-5.7,11.6-6.3,23.6-1.7,28.1c0.8,6.2,11,13.3,24,16.4c13.9,3.3,25.8,0.7,26.5-5.9
			C2713.3,929,2702.5,921,2688.6,917.8z"/>
	</g>
	<g>
		<path class="st22" d="M1716.3,1536.7h755.3c81.6,0,148.3-66.8,148.3-148.3V1240h-903.7V1536.7z"/>
		<g>
			<rect x="1716.3" y="1240" class="st13" width="903.7" height="174.1"/>
			<rect x="1716.3" y="1240" class="st14" width="903.7" height="63.5"/>
		</g>
	</g>
	<path class="st14" d="M1974.4,1288.8h-91.1c-14.1,0-25.6,11.5-25.6,25.6v0c0,14.1,11.5,25.6,25.6,25.6h91.1
		c14.1,0,25.6-11.5,25.6-25.6v0C2000,1300.3,1988.5,1288.8,1974.4,1288.8z"/>
	<path class="st14" d="M2056.5,1288.8h-13.2c-14.1,0-25.6,11.5-25.6,25.6v0c0,14.1,11.5,25.6,25.6,25.6h13.2
		c14.1,0,25.6-11.5,25.6-25.6v0C2082.1,1300.3,2070.6,1288.8,2056.5,1288.8z"/>
	<path class="st12" d="M1675.6,1335.6h-91.1c-14.1,0-25.6,11.5-25.6,25.6v0c0,14.1,11.5,25.6,25.6,25.6h91.1
		c14.1,0,25.6-11.5,25.6-25.6v0C1701.3,1347.1,1689.7,1335.6,1675.6,1335.6z"/>
	<path class="st10" d="M1966.2,1440h-152.3c-18.6,0-33.8,15.2-33.8,33.8v0c0,18.6,15.2,33.8,33.8,33.8h152.3
		c18.6,0,33.8-15.2,33.8-33.8v0C2000,1455.2,1984.8,1440,1966.2,1440z"/>
	<circle class="st10" cx="2081.6" cy="1461.6" r="18.4"/>
	<circle class="st10" cx="2185" cy="1492.7" r="11.5"/>
	<g>
		<path class="st3" d="M725.3,713.2c-7.4,0-14.3,6-15.5,13.4c-1.1,7.4,3.9,13.4,11.3,13.4c7.4,0,14.3-6,15.5-13.4
			C737.7,719.2,732.7,713.2,725.3,713.2z"/>
		<path class="st3" d="M770.8,658.4c-5.9,0-11.5,4.8-12.4,10.8c-0.9,5.9,3.1,10.8,9.1,10.8s11.5-4.8,12.4-10.8
			C780.8,663.2,776.7,658.4,770.8,658.4z"/>
		<path class="st3" d="M725,611.4c-4.4,0-8.6,3.6-9.3,8c-0.7,4.4,2.4,8,6.8,8c4.4,0,8.6-3.6,9.3-8C732.5,615,729.4,611.4,725,611.4z
			"/>
	</g>
	<g>
		<path class="st3" d="M2205,653.2c-7.4,0-16.6,6-20.5,13.4c-3.9,7.4-1.1,13.4,6.3,13.4c7.4,0,16.6-6,20.5-13.4
			C2215.2,659.2,2212.4,653.2,2205,653.2z"/>
		<path class="st3" d="M2197.1,598.4c-5.9,0-13.3,4.8-16.5,10.8c-3.2,5.9-0.9,10.8,5,10.8s13.3-4.8,16.5-10.8
			C2205.3,603.2,2203,598.4,2197.1,598.4z"/>
		<path class="st3" d="M2275.2,551.4c-4.4,0-10,3.6-12.3,8c-2.4,4.4-0.7,8,3.8,8c4.4,0,9.9-3.6,12.3-8
			C2281.3,555,2279.6,551.4,2275.2,551.4z"/>
	</g>
	<g>
		<g>
			<g>
				<path class="st23" d="M2202,1164.5h-101.8v75.5H2202v0c20.8,0,37.7-16.9,37.7-37.7C2239.7,1181.4,2222.8,1164.5,2202,1164.5z"/>
				<path class="st24" d="M2100.1,1240H2202v0c16.6,0,30.6-10.7,35.7-25.5h-137.6V1240z"/>
				<circle class="st25" cx="2100.1" cy="1202.3" r="37.7"/>
				<path class="st23" d="M2133.4,1198.6c-0.8,0-1.5,0.7-1.5,1.5c0,9.4-3.6,17.9-9.3,24.1c-5.8,6.1-13.7,9.9-22.5,9.9
					c-8.8,0-16.7-3.8-22.5-9.9c-5.8-6.2-9.3-14.7-9.3-24.1c0-8.2,3.1-15.6,8.1-21c5-5.3,11.9-8.6,19.5-8.6c7.6,0,14.5,3.3,19.5,8.6
					c5,5.4,8.1,12.8,8.1,21c0,7-2.6,13.3-6.9,17.8c-4.2,4.5-10.1,7.3-16.6,7.3c-6.5,0-12.3-2.8-16.6-7.3c-4.3-4.6-6.9-10.9-6.9-17.8
					c0-5.7,2.2-10.9,5.7-14.7c3.5-3.7,8.3-6,13.6-6c5.3,0,10.1,2.3,13.6,6c3.5,3.7,5.7,8.9,5.7,14.7c0,4.5-1.7,8.6-4.5,11.5
					c-2.7,2.9-6.5,4.7-10.7,4.7c-4.2,0-8-1.8-10.7-4.7c-2.8-2.9-4.5-7-4.5-11.5c0-3.3,1.2-6.3,3.3-8.4c2-2.1,4.7-3.4,7.8-3.4
					s5.8,1.3,7.8,3.4c2,2.1,3.3,5.1,3.3,8.4c0,2.1-0.8,3.9-2,5.3c-1.2,1.3-2.9,2.1-4.8,2.1c-1.9,0-3.6-0.8-4.8-2.1
					c-1.3-1.3-2-3.2-2-5.3c0-0.8,0.3-1.6,0.8-2.1c0.5-0.5,1.2-0.8,1.9-0.8c0.7,0,1.4,0.3,1.9,0.8c0.5,0.5,0.8,1.3,0.8,2.1
					c0,0.8,0.7,1.5,1.5,1.5c0.8,0,1.5-0.7,1.5-1.5c0-1.6-0.6-3.1-1.6-4.1c-1-1.1-2.4-1.8-4-1.8c-1.6,0-3,0.7-4,1.8
					c-1,1.1-1.6,2.5-1.6,4.1c0,2.8,1.1,5.4,2.8,7.3c1.8,1.9,4.2,3.1,6.9,3.1c2.7,0,5.2-1.2,6.9-3.1c1.8-1.9,2.8-4.4,2.8-7.3
					c0-4.1-1.5-7.7-4.1-10.4c-2.5-2.7-6-4.4-9.9-4.4c-3.9,0-7.4,1.7-9.9,4.4c-2.5,2.7-4.1,6.3-4.1,10.4c0,5.3,2,10.1,5.3,13.5
					c3.3,3.5,7.8,5.7,12.8,5.7c5,0,9.5-2.2,12.8-5.7c3.3-3.5,5.3-8.3,5.3-13.5c0-6.5-2.5-12.4-6.5-16.7c-4-4.3-9.6-7-15.7-7
					c-6.2,0-11.7,2.7-15.8,7c-4,4.3-6.5,10.2-6.5,16.7c0,7.7,2.9,14.7,7.7,19.8c4.8,5.1,11.4,8.3,18.7,8.3c7.3,0,13.9-3.2,18.7-8.3
					c4.8-5.1,7.7-12.1,7.7-19.8c0-8.9-3.4-17.1-8.9-22.9c-5.5-5.9-13.2-9.6-21.6-9.6c-8.5,0-16.1,3.7-21.6,9.6
					c-5.5,5.9-8.9,14-8.9,22.9c0,10.2,3.9,19.4,10.1,26.1c6.3,6.7,15,10.8,24.6,10.8c9.6,0,18.3-4.1,24.6-10.8
					c6.3-6.7,10.1-15.9,10.1-26.1C2134.8,1199.2,2134.2,1198.6,2133.4,1198.6z"/>
			</g>
			<path class="st26" d="M2211.7,1180.5h-34.6c-6.3,0-11.5,5.2-11.5,11.5v0c0,6.3,5.2,11.5,11.5,11.5h34.6c6.3,0,11.5-5.2,11.5-11.5
				v0C2223.1,1185.7,2218,1180.5,2211.7,1180.5z"/>
		</g>
		<g>
			<g>
				<g>
					<path class="st23" d="M2253,1111.7h-101.8v75.5H2253v0c20.8,0,37.7-16.9,37.7-37.7C2290.8,1128.6,2273.9,1111.7,2253,1111.7z"
						/>
					<path class="st24" d="M2151.2,1187.2H2253v0c16.6,0,30.6-10.7,35.7-25.5h-137.6V1187.2z"/>
					<circle class="st25" cx="2151.2" cy="1149.4" r="37.7"/>
					<path class="st23" d="M2184.4,1145.8c-0.8,0-1.5,0.7-1.5,1.5c0,9.4-3.6,17.9-9.3,24.1c-5.8,6.1-13.7,9.9-22.5,9.9
						c-8.8,0-16.7-3.8-22.5-9.9c-5.8-6.2-9.3-14.7-9.3-24.1c0-8.2,3.1-15.6,8.1-21c5-5.3,11.9-8.6,19.5-8.6c7.6,0,14.5,3.3,19.5,8.6
						c5,5.4,8.1,12.8,8.1,21c0,7-2.6,13.3-6.9,17.8c-4.2,4.5-10.1,7.3-16.6,7.3c-6.5,0-12.3-2.8-16.6-7.3
						c-4.3-4.6-6.9-10.9-6.9-17.8c0-5.7,2.2-10.9,5.7-14.7c3.5-3.7,8.3-6,13.6-6c5.3,0,10.1,2.3,13.6,6c3.5,3.7,5.7,8.9,5.7,14.7
						c0,4.5-1.7,8.6-4.5,11.5c-2.7,2.9-6.5,4.7-10.7,4.7c-4.2,0-8-1.8-10.7-4.7c-2.8-2.9-4.5-7-4.5-11.5c0-3.3,1.2-6.3,3.3-8.4
						c2-2.1,4.7-3.4,7.8-3.4c3,0,5.8,1.3,7.8,3.4c2,2.1,3.3,5.1,3.3,8.4c0,2.1-0.8,3.9-2,5.3c-1.2,1.3-2.9,2.1-4.8,2.1
						c-1.9,0-3.6-0.8-4.8-2.1c-1.3-1.3-2-3.2-2-5.3c0-0.8,0.3-1.6,0.8-2.1c0.5-0.5,1.2-0.8,1.9-0.8c0.7,0,1.4,0.3,1.9,0.8
						c0.5,0.5,0.8,1.3,0.8,2.1c0,0.8,0.7,1.5,1.5,1.5c0.8,0,1.5-0.7,1.5-1.5c0-1.6-0.6-3.1-1.6-4.1c-1-1.1-2.4-1.8-4-1.8
						c-1.6,0-3,0.7-4,1.8c-1,1.1-1.6,2.5-1.6,4.1c0,2.8,1.1,5.4,2.8,7.3c1.8,1.9,4.2,3.1,6.9,3.1c2.7,0,5.2-1.2,6.9-3.1
						c1.8-1.9,2.8-4.4,2.8-7.3c0-4.1-1.5-7.7-4.1-10.4c-2.5-2.7-6-4.4-9.9-4.4c-3.9,0-7.4,1.7-9.9,4.4c-2.5,2.7-4.1,6.3-4.1,10.4
						c0,5.3,2,10.1,5.3,13.5c3.3,3.5,7.8,5.7,12.8,5.7c5,0,9.5-2.2,12.8-5.7c3.3-3.5,5.3-8.3,5.3-13.5c0-6.5-2.5-12.4-6.5-16.7
						c-4-4.3-9.6-7-15.7-7c-6.2,0-11.7,2.7-15.8,7c-4,4.3-6.5,10.2-6.5,16.7c0,7.7,2.9,14.7,7.7,19.8c4.8,5.1,11.4,8.3,18.7,8.3
						c7.3,0,13.9-3.2,18.7-8.3c4.8-5.1,7.7-12.1,7.7-19.8c0-8.9-3.4-17.1-8.9-22.9c-5.5-5.9-13.2-9.6-21.6-9.6
						c-8.5,0-16.1,3.6-21.6,9.6c-5.5,5.9-8.9,14-8.9,22.9c0,10.2,3.9,19.4,10.1,26.1c6.3,6.7,15,10.8,24.6,10.8
						c9.6,0,18.3-4.1,24.6-10.8c6.3-6.7,10.1-15.9,10.1-26.1C2185.9,1146.4,2185.2,1145.8,2184.4,1145.8z"/>
				</g>
				<path class="st26" d="M2262.7,1127.7h-34.6c-6.3,0-11.5,5.2-11.5,11.5v0c0,6.3,5.2,11.5,11.5,11.5h34.6
					c6.3,0,11.5-5.2,11.5-11.5v0C2274.2,1132.9,2269,1127.7,2262.7,1127.7z"/>
			</g>
			<g>
				<g>
					<path class="st23" d="M2305.7,1164.5h-101.8v75.5h101.8v0c20.8,0,37.7-16.9,37.7-37.7
						C2343.4,1181.4,2326.5,1164.5,2305.7,1164.5z"/>
					<path class="st24" d="M2203.8,1240h101.8v0c16.6,0,30.6-10.7,35.7-25.5h-137.6V1240z"/>
					<circle class="st25" cx="2203.8" cy="1202.3" r="37.7"/>
					<path class="st23" d="M2237.1,1198.6c-0.8,0-1.5,0.7-1.5,1.5c0,9.4-3.6,17.9-9.3,24.1c-5.8,6.1-13.7,9.9-22.5,9.9
						c-8.8,0-16.7-3.8-22.5-9.9c-5.8-6.2-9.3-14.7-9.3-24.1c0-8.2,3.1-15.6,8.1-21c5-5.3,11.9-8.6,19.5-8.6c7.6,0,14.5,3.3,19.5,8.6
						c5,5.4,8.1,12.8,8.1,21c0,7-2.6,13.3-6.9,17.8c-4.2,4.5-10.1,7.3-16.6,7.3c-6.5,0-12.3-2.8-16.6-7.3
						c-4.3-4.6-6.9-10.9-6.9-17.8c0-5.7,2.2-10.9,5.7-14.7c3.5-3.7,8.3-6,13.6-6c5.3,0,10.1,2.3,13.6,6c3.5,3.7,5.7,8.9,5.7,14.7
						c0,4.5-1.7,8.6-4.5,11.5c-2.7,2.9-6.5,4.7-10.7,4.7c-4.2,0-8-1.8-10.7-4.7c-2.8-2.9-4.5-7-4.5-11.5c0-3.3,1.2-6.3,3.3-8.4
						c2-2.1,4.7-3.4,7.8-3.4c3,0,5.8,1.3,7.8,3.4c2,2.1,3.3,5.1,3.3,8.4c0,2.1-0.8,3.9-2,5.3c-1.2,1.3-2.9,2.1-4.8,2.1
						c-1.9,0-3.6-0.8-4.8-2.1c-1.3-1.3-2-3.2-2-5.3c0-0.8,0.3-1.6,0.8-2.1c0.5-0.5,1.2-0.8,1.9-0.8c0.7,0,1.4,0.3,1.9,0.8
						c0.5,0.5,0.8,1.3,0.8,2.1c0,0.8,0.7,1.5,1.5,1.5c0.8,0,1.5-0.7,1.5-1.5c0-1.6-0.6-3.1-1.6-4.1c-1-1.1-2.4-1.8-4-1.8
						c-1.6,0-3,0.7-4,1.8c-1,1.1-1.6,2.5-1.6,4.1c0,2.8,1.1,5.4,2.8,7.3c1.8,1.9,4.2,3.1,6.9,3.1c2.7,0,5.2-1.2,6.9-3.1
						c1.8-1.9,2.8-4.4,2.8-7.3c0-4.1-1.5-7.7-4.1-10.4c-2.5-2.7-6-4.4-9.9-4.4c-3.9,0-7.4,1.7-9.9,4.4c-2.5,2.7-4.1,6.3-4.1,10.4
						c0,5.3,2,10.1,5.3,13.5c3.3,3.5,7.8,5.7,12.8,5.7c5,0,9.5-2.2,12.8-5.7c3.3-3.5,5.3-8.3,5.3-13.5c0-6.5-2.5-12.4-6.5-16.7
						c-4-4.3-9.6-7-15.7-7c-6.2,0-11.7,2.7-15.8,7c-4,4.3-6.5,10.2-6.5,16.7c0,7.7,2.9,14.7,7.7,19.8c4.8,5.1,11.4,8.3,18.7,8.3
						c7.3,0,13.9-3.2,18.7-8.3c4.8-5.1,7.7-12.1,7.7-19.8c0-8.9-3.4-17.1-8.9-22.9c-5.5-5.9-13.2-9.6-21.6-9.6
						c-8.5,0-16.1,3.7-21.6,9.6c-5.5,5.9-8.9,14-8.9,22.9c0,10.2,3.9,19.4,10.1,26.1c6.3,6.7,15,10.8,24.6,10.8
						c9.6,0,18.3-4.1,24.6-10.8c6.3-6.7,10.1-15.9,10.1-26.1C2238.5,1199.2,2237.9,1198.6,2237.1,1198.6z"/>
				</g>
				<path class="st26" d="M2315.4,1180.5h-34.6c-6.3,0-11.5,5.2-11.5,11.5v0c0,6.3,5.2,11.5,11.5,11.5h34.6
					c6.3,0,11.5-5.2,11.5-11.5v0C2326.8,1185.7,2321.7,1180.5,2315.4,1180.5z"/>
			</g>
		</g>
	</g>
	<g>
		<path class="st27" d="M380,1388.3c0,81.6,66.8,148.3,148.3,148.3h743.3c81.6,0,148.3-66.8,148.3-148.3V1240H380V1388.3z"/>
		<rect x="380" y="1240" class="st28" width="1040" height="63.5"/>
		<path class="st29" d="M380,1388.3c0,8.8,0.8,17.4,2.3,25.8h1035.5c1.5-8.4,2.3-17,2.3-25.8v-84.8H380V1388.3z"/>
		<g>
			<path class="st30" d="M737.8,1405.3h-5.4c-17.8,0-32.4,14.6-32.4,32.4v32.4h17.8v5.2c0,5.5,4.5,10,10,10h10h58.7h301.3v-80H785
				H737.8z"/>
			<polygon class="st30" points="1037.8,1445.3 1182.5,1500 1135.6,1445.3 1182.5,1390.6 			"/>
			<circle class="st28" cx="732.3" cy="1430.5" r="7.3"/>
			<polygon class="st31" points="821.4,1430.1 846.2,1405.3 796.7,1405.3 			"/>
			<polygon class="st31" points="882.5,1430.1 907.3,1405.3 857.8,1405.3 			"/>
			<polygon class="st31" points="943.6,1430.1 968.4,1405.3 918.9,1405.3 			"/>
			<polygon class="st31" points="1004.7,1430.1 1029.5,1405.3 980,1405.3 			"/>
		</g>
		<g>
			<path class="st30" d="M1071.5,1278.4c-4.9-4.9-12.9-4.9-17.7,0l-30.1,30.1c-4.9,4.9-4.9,12.9,0,17.7l30.1,30.1
				c4.9,4.9,12.9,4.9,17.7,0l30.1-30.1c4.9-4.9,4.9-12.9,0-17.7L1071.5,1278.4z"/>
			<polygon class="st31" points="1124.7,1351.8 1124.7,1283 1090.3,1317.4 			"/>
			<circle class="st28" cx="1040.5" cy="1310.3" r="5.7"/>
			<polygon class="st31" points="1067.2,1341.3 1067.2,1309.1 1051.1,1325.2 			"/>
		</g>
		<g>
			<path class="st32" d="M620,1388.3V1240H380v148.3c0,81.6,66.8,148.3,148.3,148.3h240C686.8,1536.7,620,1469.9,620,1388.3z"/>
			<rect x="380" y="1240" class="st29" width="240" height="63.5"/>
			<path class="st27" d="M620,1303.5H380v84.8c0,8.8,0.8,17.4,2.3,25.8h240c-1.5-8.4-2.3-17-2.3-25.8V1303.5z"/>
		</g>
		<g>
			<path class="st30" d="M654.1,1278c-7.8-7.8-20.5-7.8-28.2,0l-47.9,47.9c-7.8,7.8-7.8,20.5,0,28.2l47.9,47.9
				c7.8,7.8,20.5,7.8,28.2,0l47.9-47.9c7.8-7.8,7.8-20.5,0-28.2L654.1,1278z"/>
			<polygon class="st31" points="541.4,1394.7 596,1340 541.4,1285.3 			"/>
			<circle class="st28" cx="675.2" cy="1328.7" r="9.1"/>
			<polygon class="st31" points="632.7,1378.1 658.3,1352.5 632.7,1326.9 			"/>
		</g>
		<path class="st31" d="M630,1480c-37.7,0-70.3,23.6-83.6,56.7h167.1C700.3,1503.6,667.7,1480,630,1480z"/>
		<path class="st31" d="M1060,1509.6c-18.1,0-33.6,11.3-40,27.1h80C1093.6,1520.8,1078.1,1509.6,1060,1509.6z"/>
		<circle class="st33" cx="1295.9" cy="1355.9" r="15.9"/>
		<circle class="st33" cx="814.1" cy="1297.4" r="9.8"/>
		<circle class="st33" cx="580" cy="1460" r="9.8"/>
		<circle class="st33" cx="1363.3" cy="1288.2" r="9.8"/>
		<g>
			<g>
				<path class="st28" d="M1356,1396.3l-18.9,45l19,68.8c14.3-10,26.8-22.4,36.9-36.7l-2-38.8L1356,1396.3z"/>
				<polygon class="st33" points="1337.1,1441.4 1357.7,1461.2 1380.6,1453.6 1390.9,1434.6 1356,1396.3 				"/>
				<path class="st27" d="M1357.7,1461.2l6.1,43.2c7.8-6.2,14.9-13.1,21.3-20.7l-4.5-30L1357.7,1461.2z"/>
				<path class="st32" d="M1380.6,1453.6l4.5,30c2.7-3.3,5.4-6.6,7.8-10.1l-2-38.8L1380.6,1453.6z"/>
				<polygon class="st28" points="1357.7,1461.2 1380.6,1453.6 1356,1396.3 				"/>
				<polygon class="st29" points="1380.6,1453.6 1390.9,1434.6 1356,1396.3 				"/>
			</g>
			<g>
				<path class="st28" d="M1214.7,1459.9l18.3,47l50.4,29.2c18.9-1.5,36.8-6.6,53.1-14.5l-61.2-54.8L1214.7,1459.9z"/>
				<polygon class="st33" points="1214.7,1459.9 1233,1507 1266.6,1508.9 1280.9,1488.2 1275.3,1466.8 				"/>
				<path class="st27" d="M1266.6,1508.9l33.4,25.1c10.5-2.1,20.7-5.2,30.3-9.4l-49.3-36.4L1266.6,1508.9z"/>
				<path class="st32" d="M1280.9,1488.2l49.3,36.4c2.1-0.9,4.2-1.9,6.3-2.9l-61.2-54.8L1280.9,1488.2z"/>
				<polygon class="st28" points="1266.6,1508.9 1280.9,1488.2 1214.7,1459.9 				"/>
				<polygon class="st29" points="1214.7,1459.9 1280.9,1488.2 1275.3,1466.8 				"/>
			</g>
			<g>
				<path class="st28" d="M1251.3,1358l-3.6,72l71.7,98.7c16.9-5.8,32.5-14.6,46.1-25.7l-48.4-114.2L1251.3,1358z"/>
				<polygon class="st33" points="1247.7,1430.1 1285.2,1444.5 1312.4,1420.6 1317.1,1388.8 1251.3,1358 				"/>
				<path class="st27" d="M1285.2,1444.5l43.5,80.7c11.2-4.7,21.8-10.8,31.5-18l-47.8-86.6L1285.2,1444.5z"/>
				<path class="st32" d="M1312.4,1420.6l47.8,86.6c1.8-1.4,3.6-2.8,5.4-4.2l-48.4-114.2L1312.4,1420.6z"/>
				<polygon class="st28" points="1285.2,1444.5 1312.4,1420.6 1251.3,1358 				"/>
				<polygon class="st29" points="1312.4,1420.6 1317.1,1388.8 1251.3,1358 				"/>
			</g>
		</g>
		<g>
			<g>
				<path class="st28" d="M419.9,1457l-1.6,30.5c7.9,11.2,17.7,21,29,28.8l14.9-54l-14.9-35.3L419.9,1457z"/>
				<polygon class="st33" points="419.9,1457 428,1471.8 446,1477.8 462.2,1462.2 447.3,1426.9 				"/>
				<path class="st27" d="M424.4,1495.4c5,6,10.6,11.4,16.7,16.3l4.8-33.9l-18-6L424.4,1495.4z"/>
				<path class="st32" d="M418.3,1487.4c1.9,2.7,4,5.4,6.1,8l3.6-23.6l-8.1-14.9L418.3,1487.4z"/>
				<polygon class="st28" points="446,1477.8 447.3,1426.9 428,1471.8 				"/>
				<polygon class="st29" points="428,1471.8 447.3,1426.9 419.9,1457 				"/>
			</g>
			<g>
				<path class="st28" d="M462.6,1525.3c12.8,6.3,26.9,10.2,41.7,11.4l39.5-23l14.4-36.9l-47.6,5.4L462.6,1525.3z"/>
				<polygon class="st33" points="506.3,1499 517.5,1515.2 543.9,1513.7 558.2,1476.8 510.6,1482.2 				"/>
				<path class="st27" d="M467.6,1527.5c7.5,3.3,15.5,5.8,23.8,7.4l26.2-19.7l-11.2-16.3L467.6,1527.5z"/>
				<path class="st32" d="M467.6,1527.5l38.7-28.6l4.4-16.8l-48,43C464.2,1526.1,465.9,1526.8,467.6,1527.5z"/>
				<polygon class="st28" points="517.5,1515.2 558.2,1476.8 506.3,1499 				"/>
				<polygon class="st29" points="506.3,1499 558.2,1476.8 510.6,1482.2 				"/>
			</g>
			<g>
				<path class="st28" d="M477.8,1421l-38,89.6c10.7,8.7,22.9,15.7,36.2,20.2l56.3-77.5l-2.8-56.5L477.8,1421z"/>
				<polygon class="st33" points="477.8,1421 481.5,1445.9 502.9,1464.7 532.3,1453.4 529.5,1396.8 				"/>
				<path class="st27" d="M444.1,1513.9c7.6,5.7,15.9,10.4,24.7,14.1l34.2-63.4l-21.4-18.8L444.1,1513.9z"/>
				<path class="st32" d="M439.9,1510.6c1.4,1.1,2.8,2.2,4.2,3.3l37.5-68l-3.7-24.9L439.9,1510.6z"/>
				<polygon class="st28" points="502.9,1464.7 529.5,1396.8 481.5,1445.9 				"/>
				<polygon class="st29" points="481.5,1445.9 529.5,1396.8 477.8,1421 				"/>
			</g>
		</g>
	</g>
	<path class="st1" d="M2074.1,555.2h-232.6c-29.5,0-53.7,24.2-53.7,53.7v0c0,29.5,24.2,53.7,53.7,53.7h232.6
		c29.5,0,53.7-24.2,53.7-53.7v0C2127.8,579.3,2103.6,555.2,2074.1,555.2z"/>
</g>
</svg>
